HIERARCHY
ROOT Hips
{
	OFFSET 0.000000 0.000000 0.000000
	CHANNELS 6 Xposition Yposition Zposition Zrotation Yrotation Xrotation 
	JOINT LHipJoint
	{
		OFFSET 0.000000 0.000000 0.000000
		CHANNELS 3 Zrotation Yrotation Xrotation
		JOINT LeftUpLeg
		{
			OFFSET 1.363060 -1.794630 0.839290
			CHANNELS 3 Zrotation Yrotation Xrotation
			JOINT LeftLeg
			{
				OFFSET 2.448110 -6.726130 0.000000
				CHANNELS 3 Zrotation Yrotation Xrotation
				JOINT LeftFoot
				{
					OFFSET 2.562200 -7.039590 0.000000
					CHANNELS 3 Zrotation Yrotation Xrotation
					JOINT LeftToeBase
					{
						OFFSET 0.157640 -0.433110 2.322550
						CHANNELS 3 Zrotation Yrotation Xrotation
						End Site
						{
							OFFSET 0.000000 0.000000 0.000000
						}
					}
				}
			}
		}
	}
	JOINT RHipJoint
	{
		OFFSET 0.000000 0.000000 0.000000
		CHANNELS 3 Zrotation Yrotation Xrotation
		JOINT RightUpLeg
		{
			OFFSET -1.305520 -1.794630 0.839290
			CHANNELS 3 Zrotation Yrotation Xrotation
			JOINT RightLeg
			{
				OFFSET -2.542530 -6.985550 0.000000
				CHANNELS 3 Zrotation Yrotation Xrotation
				JOINT RightFoot
				{
					OFFSET -2.568260 -7.056230 0.000000
					CHANNELS 3 Zrotation Yrotation Xrotation
					JOINT RightToeBase
					{
						OFFSET -0.164730 -0.452590 2.363150
						CHANNELS 3 Zrotation Yrotation Xrotation
						End Site
						{
							OFFSET 0.000000 0.000000 0.000000
						}
					}
				}
			}
		}
	}
}
MOTION
Frames: 30
Frame Time: 0.008333
-2.389197 15.829778 1.687815 -128.920451 -85.192385 151.360047 -10.353489 -0.487737 -3.677897 -13.501770 7.230567 -44.692392 -1.367831 3.731274 61.386110 2.951728 11.191440 -29.115173 -4.597500 -0.000000 -30.818400 10.454516 0.787425 -4.387547 13.299341 -7.419829 -52.676297 -1.649501 -6.399360 81.733215 -1.424280 -5.908388 -13.200372 0.501101 0.000000 -24.698900
-2.543866 15.860587 1.682902 -126.592649 -85.377777 149.141702 -10.419264 -0.482529 -3.788508 -13.308740 7.549459 -43.895540 -1.408624 3.687592 60.913439 2.855722 10.822351 -28.758339 -4.402000 0.000000 -32.325900 10.275975 0.885406 -4.261228 13.588887 -6.942599 -54.049714 -1.481244 -6.403304 80.693953 -1.448791 -5.848056 -13.686427 0.547500 -0.000000 -24.975000
-2.700033 15.890992 1.676975 -124.373275 -85.552193 147.059555 -10.485052 -0.473599 -3.890239 -13.122306 7.864607 -43.128187 -1.451343 3.643270 60.415180 2.760220 10.447395 -28.389904 -4.205600 -0.000001 -33.915500 10.087586 0.975002 -4.118814 13.871687 -6.456697 -55.407290 -1.304556 -6.395663 79.521570 -1.492593 -5.887157 -14.090783 0.591900 0.000000 -25.404600
-2.858104 15.920643 1.669793 -122.324568 -85.721023 145.177989 -10.548471 -0.457635 -3.980522 -12.951206 8.167544 -42.390932 -1.496049 3.597972 59.889929 2.665764 10.068950 -28.009076 -4.009599 -0.000000 -35.521800 9.892873 1.056283 -3.960128 14.145538 -5.970610 -56.749153 -1.120098 -6.376766 78.216011 -1.549375 -5.989671 -14.399053 0.630100 0.000000 -25.903000
-3.018069 15.949217 1.661370 -120.399010 -85.884628 143.449525 -10.609519 -0.435028 -4.059000 -12.791340 8.457867 -41.684070 -1.541305 3.551548 59.341380 2.571276 9.686859 -27.602843 -3.811300 0.000000 -37.191101 9.693935 1.125965 -3.784752 14.416618 -5.483190 -58.068905 -0.928242 -6.346865 76.776014 -1.613006 -6.123604 -14.594900 0.656500 0.000000 -26.451100
-3.180466 15.976398 1.651280 -118.710692 -86.051920 141.989221 -10.664778 -0.400980 -4.124295 -12.657750 8.726749 -41.003729 -1.587839 3.503902 58.768941 2.477947 9.304659 -27.177636 -3.613700 0.000000 -38.776500 9.496123 1.186229 -3.594014 14.675653 -5.007636 -59.370018 -0.728774 -6.308022 75.214484 -1.675171 -6.242459 -14.692131 0.667700 -0.000000 -26.894900
-3.345098 16.001972 1.639611 -117.234133 -86.222704 140.766083 -10.714129 -0.356303 -4.177910 -12.547041 8.976895 -40.347588 -1.634828 3.455301 58.177581 2.385062 8.921620 -26.728623 -3.416300 0.000000 -40.275800 9.301869 1.235065 -3.389031 14.926945 -4.544227 -60.648793 -0.521156 -6.261764 73.541498 -1.729284 -6.312876 -14.699122 0.660999 0.000000 -27.205900
-3.512237 16.025700 1.626295 -116.020410 -86.398554 139.830754 -10.756689 -0.300024 -4.221938 -12.460732 9.210832 -39.709907 -1.682273 3.406095 57.569974 2.292955 8.540406 -26.256974 -3.220400 -0.000001 -41.666900 9.114545 1.272499 -3.171308 15.168803 -4.095059 -61.903018 -0.304578 -6.209698 71.771635 -1.769031 -6.303343 -14.634202 0.636400 0.000000 -27.379500
-3.681657 16.047447 1.611499 -115.096732 -86.576371 139.203048 -10.792578 -0.233295 -4.259661 -12.394802 9.435240 -39.085705 -1.730036 3.356904 56.950570 2.201754 8.162354 -25.766084 -3.027500 -0.000000 -42.951100 8.936008 1.297760 -2.942801 15.405005 -3.658696 -63.128694 -0.077832 -6.153098 69.919229 -1.789685 -6.192105 -14.518344 0.595800 0.000000 -27.465100
-3.853325 16.067137 1.595387 -114.519540 -86.751638 138.934879 -10.822053 -0.157155 -4.294790 -12.343658 9.657758 -38.468009 -1.778363 3.308363 56.323010 2.112030 7.789941 -25.263797 -2.839800 -0.000000 -44.130700 8.767852 1.310410 -2.705761 15.639748 -3.232517 -64.318967 0.160492 -6.092543 67.997319 -1.788023 -5.966214 -14.372942 0.543300 0.000001 -27.559100
-4.027228 16.084708 1.578222 -114.349757 -86.918089 139.081247 -10.845699 -0.073055 -4.331109 -12.299609 9.886724 -37.848324 -1.827573 3.260983 55.688870 2.024369 7.425779 -24.758112 -2.659600 0.000000 -45.226000 8.610911 1.309927 -2.463151 15.880011 -2.814614 -65.463284 0.412197 -6.027863 66.014889 -1.762309 -5.621274 -14.216744 0.483300 0.000000 -27.792900
-4.203050 16.100140 1.560466 -114.587764 -87.064018 139.638850 -10.865522 0.015293 -4.371432 -12.248097 10.130333 -37.226710 -1.876768 3.215441 55.054020 1.938926 7.072757 -24.249711 -2.487200 -0.000000 -46.341000 8.463769 1.293881 -2.214742 16.136672 -2.389803 -66.547937 0.678385 -5.956640 63.968515 -1.714177 -5.172992 -14.049880 0.418900 -0.000001 -28.395600
-4.380870 16.113419 1.542301 -115.306994 -87.184724 140.673087 -10.881434 0.107793 -4.418639 -12.183839 10.391587 -36.589406 -1.926737 3.172022 54.417471 1.856666 6.733529 -23.752366 -2.325500 -0.000000 -47.445100 8.327376 1.263343 -1.966083 16.417264 -1.965205 -67.553486 0.960871 -5.877261 61.859749 -1.643977 -4.628947 -13.881517 0.353801 0.000000 -29.494500
-4.560539 16.124549 1.524043 -116.454130 -87.271680 142.125674 -10.895038 0.201984 -4.473682 -12.095110 10.671893 -35.932607 -1.976574 3.130989 53.781916 1.777694 6.410526 -23.265851 -2.174200 0.000001 -48.608000 8.200397 1.216904 -1.719053 16.733134 -1.535615 -68.456999 1.260496 -5.785838 59.676489 -1.554878 -4.013937 -13.699259 0.289500 0.000000 -31.255200
-4.742184 16.133382 1.505825 -117.967029 -87.322648 143.929687 -10.906985 0.297646 -4.536220 -11.976862 10.966773 -35.247834 -2.025822 3.092373 53.148431 1.702226 6.105211 -22.792919 -2.033501 0.000000 -49.835900 8.082766 1.155279 -1.477683 17.092251 -1.107937 -69.235394 1.577742 -5.678885 57.411540 -1.449545 -3.348658 -13.494799 0.227400 -0.000000 -33.699700
-4.925649 16.139815 1.487840 -119.602564 -87.334339 145.836727 -10.920173 0.391175 -4.605423 -11.816422 11.272826 -34.532736 -2.072498 3.056059 52.521874 1.629310 5.816031 -22.324483 -1.901100 -0.000000 -51.201900 7.972037 1.076156 -1.243277 17.503079 -0.678150 -69.859162 1.911852 -5.551085 55.048077 -1.332768 -2.665771 -13.246876 0.167800 0.000000 -36.788000
-5.111240 16.143562 1.469849 -121.276174 -87.316654 147.755219 -10.934301 0.484781 -4.678419 -11.618894 11.577556 -33.774681 -2.116149 3.021531 51.901148 1.558976 5.542593 -21.861064 -1.776700 0.000000 -52.647400 7.869846 0.983559 -1.022302 17.965123 -0.270012 -70.308703 2.260914 -5.400374 52.597987 -1.205772 -1.975376 -12.956167 0.112700 0.000001 -40.205800
-5.299148 16.144319 1.451548 -122.894915 -87.280607 149.586381 -10.949950 0.579653 -4.751884 -11.388248 11.869581 -32.966463 -2.155554 2.988443 51.288571 1.490644 5.282871 -21.396075 -1.658500 0.000001 -54.152600 7.777311 0.881774 -0.818730 18.470718 0.101176 -70.568969 2.619374 -5.224830 50.080088 -1.070413 -1.293302 -12.608732 0.062600 0.000000 -43.649700
-5.489392 16.141721 1.432968 -124.174620 -87.235379 151.038694 -10.970979 0.671616 -4.824771 -11.114917 12.147301 -32.102080 -2.188252 2.956003 50.690619 1.422335 5.028333 -20.916747 -1.543000 -0.000000 -55.748800 7.692639 0.770525 -0.635860 19.011644 0.430333 -70.620072 2.979047 -5.023439 47.516907 -0.930139 -0.643899 -12.182263 0.017200 0.000000 -46.855000
-5.682367 16.135316 1.413299 -125.415531 -87.199399 152.407580 -10.994080 0.769164 -4.890784 -10.824672 12.393838 -31.175097 -2.214917 2.924420 50.104632 1.354800 4.780564 -20.423117 -1.430700 -0.000001 -57.333000 7.622343 0.663830 -0.478675 19.555565 0.690506 -70.480199 3.325794 -4.801837 44.980384 -0.783046 -0.025249 -11.657644 -0.023000 0.000001 -49.585500
-5.877943 16.124846 1.392678 -126.466310 -87.177903 153.532529 -11.023128 0.868404 -4.951223 -10.507517 12.617543 -30.178175 -2.233864 2.893525 49.536084 1.286094 4.529723 -19.904355 -1.318600 -0.000000 -58.935500 7.565655 0.563497 -0.351703 20.080841 0.882124 -70.147810 3.644484 -4.566487 42.527191 -0.632277 0.539757 -11.001347 -0.058400 0.000000 -51.892500
-6.076462 16.109888 1.370553 -127.701121 -87.177205 154.789281 -11.055310 0.977603 -5.000395 -10.186790 12.811701 -29.116479 -2.246727 2.864588 48.983873 1.217242 4.278069 -19.362549 -1.207800 -0.000000 -60.486100 7.528629 0.482723 -0.256602 20.546864 0.999148 -69.670475 3.917563 -4.332029 40.266300 -0.477761 1.056682 -10.214926 -0.087000 0.000000 -53.639901
-6.278012 16.090312 1.346932 -129.326996 -87.191540 156.387731 -11.090914 1.099562 -5.036364 -9.868175 12.982745 -27.998738 -2.254582 2.839172 48.450510 1.148307 4.024133 -18.796187 -1.098500 -0.000000 -61.980900 7.513503 0.427848 -0.193020 20.920910 1.056271 -69.092915 4.129315 -4.114872 38.300825 -0.322893 1.521033 -9.306568 -0.106799 0.000000 -54.862600
-6.482235 16.066262 1.322093 -131.604193 -87.204198 158.584430 -11.131012 1.236528 -5.061583 -9.551696 13.146469 -26.824290 -2.259479 2.819649 47.933403 1.079400 3.767098 -18.205346 -0.990800 0.000000 -63.416600 7.520853 0.404835 -0.164482 21.178124 1.070368 -68.455131 4.267470 -3.932610 36.738454 -0.171303 1.938367 -8.312452 -0.115100 0.000000 -55.542600
-6.689355 16.037824 1.296227 -134.738230 -87.198468 161.605232 -11.176899 1.390717 -5.070277 -9.246874 13.303529 -25.629663 -2.263265 2.807786 47.439914 1.011787 3.511113 -17.595038 -0.886500 0.000000 -64.791600 7.548941 0.414435 -0.159333 21.296899 1.080952 -67.833899 4.324794 -3.801265 35.677671 -0.028418 2.312288 -7.287934 -0.110400 0.000000 -55.631300
-6.898642 16.005584 1.269778 -139.042697 -87.146435 165.758747 -11.234644 1.563321 -5.069244 -8.953669 13.471522 -24.404150 -2.268277 2.806605 46.962315 0.945520 3.258446 -16.957384 -0.785500 0.000000 -66.148900 7.591876 0.461426 -0.184224 21.265744 1.104576 -67.258562 4.297444 -3.731008 35.207175 0.102414 2.663782 -6.323559 -0.090300 0.000000 -54.879300
-7.110196 15.969995 1.243404 -143.945076 -87.047664 170.497080 -11.310418 1.742515 -5.052585 -8.665090 13.643151 -23.193940 -2.271186 2.811880 46.517847 0.881144 3.008499 -16.297047 -0.688601 0.000000 -67.497100 7.637631 0.528004 -0.220572 21.097131 1.178296 -66.794242 4.191996 -3.725483 35.355270 0.215713 2.995485 -5.501764 -0.056700 -0.000000 -53.140400
-7.322971 15.932016 1.217272 -149.484509 -86.896189 175.846144 -11.409092 1.925227 -5.028438 -8.388769 13.819537 -21.972697 -2.270333 2.822243 46.096793 0.819115 2.766563 -15.600328 -0.596200 -0.000000 -68.875000 7.677820 0.615140 -0.279780 20.798350 1.282415 -66.448571 4.014661 -3.781857 36.149652 0.312178 3.342737 -4.934740 -0.009800 0.000000 -50.084300
-7.536760 15.892434 1.192052 -154.506456 -86.722466 -179.333222 -11.520010 2.094049 -4.994162 -8.100330 13.980971 -20.772757 -2.255579 2.828838 45.722646 0.758883 2.526153 -14.857050 -0.507200 0.000000 -70.309000 7.710088 0.701948 -0.347183 20.414169 1.422567 -66.241733 3.785546 -3.891654 37.529399 0.388163 3.706013 -4.712873 0.043300 0.000000 -45.435200
-7.750877 15.852261 1.168051 -158.515865 -86.543169 -175.535499 -11.626676 2.245216 -4.952317 -7.786085 14.111319 -19.595316 -2.221582 2.829760 45.404128 0.700300 2.285476 -14.049658 -0.421100 -0.000000 -71.810300 7.741576 0.786877 -0.424427 19.991658 1.577321 -66.153369 3.526207 -4.041547 39.406122 0.443489 4.092734 -4.908486 0.093200 0.000000 -39.039500
